<svg width="44" height="44" viewBox="0 0 44 44" fill="none" xmlns="http://www.w3.org/2000/svg">
<path fill-rule="evenodd" clip-rule="evenodd" d="M22 5.5C12.8873 5.5 5.5 12.8873 5.5 22C5.5 30.3137 11.6487 37.1914 19.6467 38.3335V26.955H15.7956V22.0033H19.6467V18.7017C19.6467 15.0667 22.3659 12.1 25.6956 12.1H29.55V17.0517H25.6956C25.0868 17.0517 24.5967 17.7859 24.5967 18.7017V22.0033H29.55L28.6887 26.955H24.5967V38.2968C32.4757 37.0513 38.5 30.2292 38.5 22C38.5 12.8873 31.1127 5.5 22 5.5Z" fill="#939496"/>
<mask id="mask0" mask-type="alpha" maskUnits="userSpaceOnUse" x="5" y="5" width="34" height="34">
<path fill-rule="evenodd" clip-rule="evenodd" d="M22 5.5C12.8873 5.5 5.5 12.8873 5.5 22C5.5 30.3137 11.6487 37.1914 19.6467 38.3335V26.955H15.7956V22.0033H19.6467V18.7017C19.6467 15.0667 22.3659 12.1 25.6956 12.1H29.55V17.0517H25.6956C25.0868 17.0517 24.5967 17.7859 24.5967 18.7017V22.0033H29.55L28.6887 26.955H24.5967V38.2968C32.4757 37.0513 38.5 30.2292 38.5 22C38.5 12.8873 31.1127 5.5 22 5.5Z" fill="white"/>
</mask>
<g mask="url(#mask0)">
<rect width="44" height="44" fill="white"/>
</g>
</svg>
