<?xml version="1.0" encoding="utf-8"?>
<!-- Generator: Adobe Illustrator 23.0.1, SVG Export Plug-In . SVG Version: 6.00 Build 0)  -->
<svg version="1.1" id="Layer_1" xmlns="http://www.w3.org/2000/svg" xmlns:xlink="http://www.w3.org/1999/xlink" x="0px" y="0px"
	 viewBox="0 0 74.9 92.4" style="enable-background:new 0 0 74.9 92.4;" xml:space="preserve">
<style type="text/css">
	.st0{fill-rule:evenodd;clip-rule:evenodd;fill:#FFFFFF;}
</style>
<title>full logo</title>
<desc>Created with Sketch.</desc>
<g id="full-logo">
	<g id="Group-58" transform="translate(1.000000, 0.000000)">
		<path id="Fill-1" class="st0" d="M19.3,0L0,19.2V45h25.8L45,25.8V0H19.3z M5.1,21.3L21.4,5.1H40v18.6L23.7,40H5.1V21.3z"/>
		<g id="Group-57" transform="translate(0.000000, 53.000000)">
			<path id="Fill-2" class="st0" d="M8,10.1H6.7L6.6,9.9L6.4,9.2H6.3c-0.3,0.3-1,1-2.6,1C0.9,10.2-1,8.1-1,5.1C-1,2.2,0.9,0,3.9,0
				c2.8,0,4,1.6,4.3,3L8,3.1H6.3L6.1,3C5.8,2.4,5.4,1.7,3.9,1.7C2,1.7,1,3.1,1,5.1s1,3.4,2.8,3.4c1.6,0,2.3-0.8,2.3-2L6,6.4H3.6
				L3.4,6.3V4.8l0.1-0.1H8l0.1,0.1v5.1L8,10.1z"/>
			<path id="Fill-4" class="st0" d="M14.3,4.7h-1c-1.1,0-1.6,0.6-1.6,1.8v3.4L11.6,10H10L9.8,9.9V3.1L10,3h1.6l0.1,0.1l0.1,0.4h0.1
				c0,0,0.3-0.6,1.6-0.6h0.9L14.5,3v1.4L14.3,4.7z"/>
			<path id="Fill-6" class="st0" d="M18.3,4.6c-1,0-1.6,0.7-1.6,2s0.6,2,1.6,2s1.6-0.7,1.6-2S19.3,4.6,18.3,4.6 M18.3,10.2
				c-2.1,0-3.5-1.4-3.5-3.7s1.4-3.7,3.5-3.7s3.5,1.4,3.5,3.7C21.9,8.8,20.4,10.2,18.3,10.2"/>
			<polygon id="Fill-8" class="st0" points="31.1,9.9 30.9,10.1 29.1,10.1 28.9,9.9 27.8,5.7 27.7,5.7 26.5,9.9 26.4,10.1 
				24.6,10.1 24.4,9.9 22.7,4.6 22.7,3.1 22.9,3 24.1,3 24.3,3.1 25.4,7.1 25.5,7.1 26.7,3.1 26.8,3 28.7,3 28.8,3.1 29.9,7.1 
				30.1,7.1 31.2,3.1 31.4,3 32.6,3 32.8,3.1 32.8,4.6 			"/>
			<path id="Fill-10" class="st0" d="M36.9,8c0,0.3,0.1,0.4,0.4,0.4h1.3l0.1,0.1v1.4L38.6,10h-1.3c-1.3,0-2.4-0.6-2.4-2.1V4.8
				l-0.1-0.1h-1l-0.1-0.1V3.1L33.8,3h1l0.1-0.1V1.6L35,1.5h1.7l0.1,0.1v1.3L37,3h1.6l0.1,0.1v1.4l-0.1,0.1H37l-0.1,0.1V8z"/>
			<path id="Fill-12" class="st0" d="M46.7,10.1H45L44.9,10V5.8c0-0.7-0.3-1.3-1.1-1.3c-1,0-1.6,0.6-1.6,1.8v3.5L42,10.1h-1.7
				L40.2,10V0.3l0.1-0.1H42l0.1,0.1v3.2h0.1c0.3-0.3,0.9-0.7,1.8-0.7c1.7,0,2.7,1.1,2.7,2.8v4.2L46.7,10.1z"/>
			<polygon id="Fill-14" class="st0" points="10.1,24.7 8.4,24.7 8.3,24.5 8.3,19 8.1,19 5.8,24.5 5.7,24.7 4.1,24.7 4,24.5 1.7,19 
				1.6,19 1.6,24.5 1.5,24.7 -0.2,24.7 -0.4,24.5 -0.4,14.9 -0.2,14.8 1.9,14.8 2,14.9 4.9,21.8 5,21.8 7.8,14.9 8,14.8 10.1,14.8 
				10.2,14.9 10.2,24.5 			"/>
			<path id="Fill-16" class="st0" d="M15.6,21.7c0,0-0.3-0.1-0.9-0.1c-0.9,0-1.3,0.3-1.3,0.8c0,0.4,0.3,0.7,1,0.7s1.3-0.4,1.3-1
				v-0.3L15.6,21.7z M17.6,24.7H16l-0.1-0.1l-0.1-0.3h-0.1c0,0-0.6,0.6-1.6,0.6c-1.6,0-2.6-0.8-2.6-2.3c0-2.1,2-2.4,3.1-2.4
				c0.6,0,1,0.1,1,0.1l0.1-0.1V20c0-0.7-0.1-0.8-1-0.8c-0.4,0-0.9,0-1,0.4l-0.1,0.1h-1.7l-0.1-0.1c0-0.8,0.7-2.1,3-2.1s3,1.1,3,3.2
				v3.8L17.6,24.7z"/>
			<path id="Fill-18" class="st0" d="M23.6,19.3h-1c-1.1,0-1.6,0.6-1.6,1.8v3.4l-0.1,0.1h-1.7L19,24.5v-6.8l0.1-0.1h1.6l0.1,0.1
				l0.1,0.4H21c0,0,0.3-0.6,1.6-0.6h0.9l0.1,0.1V19L23.6,19.3z"/>
			<polygon id="Fill-20" class="st0" points="31.1,24.7 30.2,24.7 29.9,24.5 28,22.4 27.8,22.4 27,23.3 26.8,23.5 26.8,24.5 
				26.7,24.7 25,24.7 24.8,24.5 24.8,14.9 25,14.8 26.7,14.8 26.8,14.9 26.8,20.6 27,20.6 29.8,17.7 30.1,17.6 30.9,17.6 31.1,17.7 
				31.1,19.2 29.4,20.9 29.4,21 31.2,23.1 31.2,24.5 			"/>
			<path id="Fill-22" class="st0" d="M36.6,20.3c0-0.1-0.1-1.1-1.3-1.1c-1.1,0-1.3,1-1.3,1.1l0.1,0.1h2.3L36.6,20.3z M38.7,21.7
				l-0.1,0.1h-4.4L34.1,22c0,0.3,0.3,1.1,1.4,1.1c0.4,0,0.9-0.1,1-0.4l0.1-0.1h1.7l0.1,0.1c-0.1,0.8-0.8,2.1-3,2.1
				c-2.4,0-3.5-1.7-3.5-3.7s1.1-3.7,3.4-3.7c2.3,0,3.4,1.7,3.4,3.7V21.7z"/>
			<path id="Fill-24" class="st0" d="M42.6,22.5c0,0.3,0.1,0.4,0.4,0.4h1.3l0.1,0.1v1.4l-0.1,0.1H43c-1.3,0-2.4-0.6-2.4-2.1v-3.1
				l-0.1-0.1h-1l-0.1-0.1v-1.4l0.1-0.1h1l0.1-0.1v-1.3l0.1-0.1h1.7l0.1,0.1v1.3l0.1,0.1h1.6l0.1,0.1v1.4l-0.1,0.1h-1.6l-0.1,0.1v3.2
				H42.6z"/>
			<path id="Fill-26" class="st0" d="M47.7,24.7H46l-0.1-0.1v-6.8l0.1-0.1h1.7l0.1,0.1v6.8L47.7,24.7z M47.7,16.5H46l-0.1-0.1V15
				l0.1-0.1h1.7l0.1,0.1v1.4L47.7,16.5z"/>
			<path id="Fill-28" class="st0" d="M56,24.7h-1.7l-0.1-0.1v-4.1c0-0.7-0.3-1.3-1.1-1.3c-1,0-1.6,0.6-1.6,1.8v3.5l-0.1,0.1h-1.7
				l-0.1-0.1v-6.8l0.1-0.1h1.6l0.1,0.1l0.1,0.4h0.1c0.3-0.3,0.9-0.7,1.8-0.7c1.7,0,2.7,1.1,2.7,2.8v4.2L56,24.7z"/>
			<path id="Fill-30" class="st0" d="M60.8,23.1c1.1,0,1.6-0.8,1.6-2c0-1.1-0.4-2-1.6-2c-1.1,0-1.6,0.8-1.6,2
				C59.3,22.3,59.7,23.1,60.8,23.1z M64.4,24c0,2.5-1.6,3.7-3.5,3.7c-1.7,0-2.8-0.8-3-2.1l0.1-0.1h1.7l0.1,0.1
				c0.1,0.3,0.4,0.4,1,0.4c1,0,1.6-0.6,1.6-1.8h-0.1c0,0-0.6,0.7-1.8,0.7c-1.7,0-3.1-1.4-3.1-3.7s1.4-3.7,3.1-3.7
				c1.3,0,1.8,0.7,1.8,0.7h0.1l0.1-0.4l0.1-0.1h1.6l0.1,0.1V24H64.4z"/>
			<path id="Fill-32" class="st0" d="M6,36.3L6,36.3l1.8-0.1L8,36.3c-0.3,2-1.8,3.1-4.1,3.1c-3.1,0-4.8-2.1-4.8-5.1s1.7-5.1,4.8-5.1
				c2.3,0,3.8,1.1,4.1,3l-0.1,0.1H6.1L6,32.2c-0.3-0.8-1-1.3-2.1-1.3c-2,0-2.8,1.4-2.8,3.4s0.8,3.4,2.8,3.4C5,37.7,5.7,37.3,6,36.3"
				/>
			<g id="Group-36" transform="translate(9.920596, 31.992858)">
				<g id="Clip-35">
				</g>
				<path id="Fill-34" class="st0" d="M2.6,1.8c-1,0-1.6,0.7-1.6,2s0.6,2,1.6,2s1.6-0.7,1.6-2C4.1,2.5,3.6,1.8,2.6,1.8 M2.6,7.4
					C0.5,7.4-1,6-1,3.7S0.4,0,2.5,0S6,1.4,6,3.7C6.1,6,4.7,7.4,2.6,7.4"/>
			</g>
			<path id="Fill-37" class="st0" d="M23.8,39.3h-1.7L22,39.1V35c0-0.7-0.3-1.3-1.1-1.3c-1,0-1.6,0.6-1.6,1.8V39l-0.1,0.1h-1.7
				L17.4,39v-6.8l0.1-0.1H19l0.1,0.1l0.1,0.4h0.1c0.3-0.3,0.9-0.7,1.8-0.7c1.7,0,2.7,1.1,2.7,2.8v4.2L23.8,39.3z"/>
			<path id="Fill-39" class="st0" d="M30.1,29.5v1.4L30,31h-1.3c-0.3,0-0.4,0.1-0.4,0.4V32l0.1,0.1h1.4l0.1,0.1v1.4l-0.1,0.1h-1.4
				L28.2,34v5.1l-0.1,0.1h-1.7l-0.1-0.1V34l-0.1-0.1h-1L25,33.8v-1.4l0.1-0.1h1l0.1-0.1v-0.6c0-1.6,1.1-2.1,2.4-2.1h1.3H30.1z"/>
			<g id="Group-43" transform="translate(31.438509, 31.992858)">
				<g id="Clip-42">
				</g>
				<path id="Fill-41" class="st0" d="M3.7,2.9c0-0.1-0.1-1.1-1.3-1.1c-1.1,0-1.3,1-1.3,1.1L1.3,3h2.3L3.7,2.9z M5.9,4.3L5.7,4.4
					H1.3L1.2,4.6c0,0.3,0.3,1.1,1.4,1.1c0.4,0,0.9-0.1,1-0.4l0.1-0.1h1.7l0.1,0.1c-0.1,0.8-0.9,2.1-3,2.1C0.1,7.4-1,5.7-1,3.7
					S0.1,0,2.4,0s3.4,1.7,3.4,3.7v0.6H5.9z"/>
			</g>
			<path id="Fill-44" class="st0" d="M43.1,33.9h-1c-1.1,0-1.6,0.6-1.6,1.8v3.4l-0.1,0.1h-1.7l-0.1-0.1v-6.8l0.1-0.1h1.6l0.1,0.1
				l0.1,0.4h0.1c0,0,0.3-0.6,1.6-0.6h0.9l0.1,0.1v1.4L43.1,33.9z"/>
			<g id="Group-48" transform="translate(44.479668, 31.992858)">
				<g id="Clip-47">
				</g>
				<path id="Fill-46" class="st0" d="M3.7,2.9c0-0.1-0.1-1.1-1.3-1.1s-1.3,1-1.3,1.1L1.3,3h2.3L3.7,2.9z M5.9,4.3L5.7,4.4H1.3
					L1.2,4.6c0,0.3,0.3,1.1,1.4,1.1c0.4,0,0.9-0.1,1-0.4l0.1-0.1h1.7l0.1,0.1c-0.1,0.8-0.8,2.1-3,2.1C0.1,7.4-1,5.7-1,3.7
					S0.1,0,2.4,0s3.4,1.7,3.4,3.7v0.6H5.9z"/>
			</g>
			<path id="Fill-49" class="st0" d="M58.1,39.3h-1.7l-0.1-0.1V35c0-0.7-0.3-1.3-1.1-1.3c-1,0-1.6,0.6-1.6,1.8V39l-0.1,0.1h-1.7
				L51.7,39v-6.8l0.1-0.1h1.6l0.1,0.1l0.1,0.4h0.1c0.3-0.3,0.9-0.7,1.8-0.7c1.7,0,2.7,1.1,2.7,2.8v4.2L58.1,39.3z"/>
			<g id="Group-53" transform="translate(60.361937, 31.992858)">
				<g id="Clip-52">
				</g>
				<path id="Fill-51" class="st0" d="M2.6,5.7c0.7,0,1.1-0.3,1.3-0.7L4,4.9h1.7L5.9,5C5.6,6.7,4.2,7.4,2.6,7.4
					C0.5,7.4-0.9,6-0.9,3.7S0.5,0,2.6,0c1.6,0,3,0.7,3.3,2.4L5.7,2.6H4L3.9,2.5C3.7,2,3.3,1.8,2.6,1.8c-1,0-1.6,0.7-1.6,2
					C1,5,1.6,5.7,2.6,5.7"/>
			</g>
			<g id="Group-56" transform="translate(68.000330, 31.992858)">
				<g id="Clip-55">
				</g>
				<path id="Fill-54" class="st0" d="M3.8,2.9c0-0.1-0.1-1.1-1.3-1.1c-1.1,0-1.3,1-1.3,1.1L1.3,3h2.3L3.8,2.9z M5.9,4.3L5.7,4.4
					H1.3L1.2,4.6c0,0.3,0.3,1.1,1.4,1.1c0.4,0,0.9-0.1,1-0.4l0.1-0.1h1.7l0.1,0.1c-0.1,0.8-0.9,2.1-3,2.1C0.1,7.4-1,5.7-1,3.7
					S0.1,0,2.4,0s3.4,1.7,3.4,3.7v0.6H5.9z"/>
			</g>
		</g>
	</g>
</g>
</svg>
