<svg width="44" height="44" viewBox="0 0 44 44" fill="none" xmlns="http://www.w3.org/2000/svg">
<path fill-rule="evenodd" clip-rule="evenodd" d="M22 5.5C12.8873 5.5 5.5 12.8873 5.5 22C5.5 31.1127 12.8873 38.5 22 38.5C31.1127 38.5 38.5 31.1127 38.5 22C38.5 12.8873 31.1127 5.5 22 5.5ZM17.6843 32.1949H25.9783C29.1519 32.1949 31.7484 29.5984 31.7484 26.4248V17.5869C31.7484 14.4134 29.1519 11.8168 25.9783 11.8168H17.6843C14.5107 11.8168 11.9141 14.4134 11.9141 17.5869V26.4248C11.9141 29.5984 14.5107 32.1949 17.6843 32.1949ZM25.9782 30.6703C27.1059 30.6703 28.1702 30.2269 28.9753 29.4218C29.7803 28.6168 30.2237 27.5524 30.2237 26.4248V17.5869C30.2237 16.4593 29.7803 15.3949 28.9753 14.5899C28.1702 13.7849 27.1059 13.3415 25.9782 13.3415H17.6843C16.5567 13.3415 15.4923 13.7849 14.6872 14.5899C13.8822 15.3949 13.4388 16.4593 13.4388 17.5869V26.4248C13.4388 27.5524 13.8822 28.6168 14.6872 29.4218C15.4923 30.2269 16.5567 30.6703 17.6843 30.6703H25.9782ZM21.8619 27.3889C24.8784 27.3889 27.3237 24.9436 27.3237 21.9272C27.3237 18.9108 24.8784 16.4654 21.8619 16.4654C18.8455 16.4654 16.4002 18.9108 16.4002 21.9272C16.4002 24.9436 18.8455 27.3889 21.8619 27.3889ZM21.8356 18.3551C19.8604 18.3551 18.2592 19.9563 18.2592 21.9315C18.2592 23.9067 19.8604 25.508 21.8356 25.508C23.8108 25.508 25.412 23.9067 25.412 21.9315C25.412 19.9563 23.8108 18.3551 21.8356 18.3551ZM27.4114 17.6738C28.1256 17.6738 28.7046 17.0947 28.7046 16.3805C28.7046 15.6663 28.1256 15.0872 27.4114 15.0872C26.6971 15.0872 26.1181 15.6663 26.1181 16.3805C26.1181 17.0947 26.6971 17.6738 27.4114 17.6738Z" fill="#939496"/>
<mask id="mask0" mask-type="alpha" maskUnits="userSpaceOnUse" x="5" y="5" width="34" height="34">
<path fill-rule="evenodd" clip-rule="evenodd" d="M22 5.5C12.8873 5.5 5.5 12.8873 5.5 22C5.5 31.1127 12.8873 38.5 22 38.5C31.1127 38.5 38.5 31.1127 38.5 22C38.5 12.8873 31.1127 5.5 22 5.5ZM17.6843 32.1949H25.9783C29.1519 32.1949 31.7484 29.5984 31.7484 26.4248V17.5869C31.7484 14.4134 29.1519 11.8168 25.9783 11.8168H17.6843C14.5107 11.8168 11.9141 14.4134 11.9141 17.5869V26.4248C11.9141 29.5984 14.5107 32.1949 17.6843 32.1949ZM25.9782 30.6703C27.1059 30.6703 28.1702 30.2269 28.9753 29.4218C29.7803 28.6168 30.2237 27.5524 30.2237 26.4248V17.5869C30.2237 16.4593 29.7803 15.3949 28.9753 14.5899C28.1702 13.7849 27.1059 13.3415 25.9782 13.3415H17.6843C16.5567 13.3415 15.4923 13.7849 14.6872 14.5899C13.8822 15.3949 13.4388 16.4593 13.4388 17.5869V26.4248C13.4388 27.5524 13.8822 28.6168 14.6872 29.4218C15.4923 30.2269 16.5567 30.6703 17.6843 30.6703H25.9782ZM21.8619 27.3889C24.8784 27.3889 27.3237 24.9436 27.3237 21.9272C27.3237 18.9108 24.8784 16.4654 21.8619 16.4654C18.8455 16.4654 16.4002 18.9108 16.4002 21.9272C16.4002 24.9436 18.8455 27.3889 21.8619 27.3889ZM21.8356 18.3551C19.8604 18.3551 18.2592 19.9563 18.2592 21.9315C18.2592 23.9067 19.8604 25.508 21.8356 25.508C23.8108 25.508 25.412 23.9067 25.412 21.9315C25.412 19.9563 23.8108 18.3551 21.8356 18.3551ZM27.4114 17.6738C28.1256 17.6738 28.7046 17.0947 28.7046 16.3805C28.7046 15.6663 28.1256 15.0872 27.4114 15.0872C26.6971 15.0872 26.1181 15.6663 26.1181 16.3805C26.1181 17.0947 26.6971 17.6738 27.4114 17.6738Z" fill="white"/>
</mask>
<g mask="url(#mask0)">
<rect width="44" height="44" fill="white"/>
</g>
</svg>
