<svg width="44" height="44" viewBox="0 0 44 44" fill="none" xmlns="http://www.w3.org/2000/svg">
<path fill-rule="evenodd" clip-rule="evenodd" d="M22 5.5C12.8873 5.5 5.5 12.8873 5.5 22C5.5 31.1127 12.8873 38.5 22 38.5C31.1127 38.5 38.5 31.1127 38.5 22C38.5 12.8873 31.1127 5.5 22 5.5ZM17.0706 30.8541H13.327V18.9198H17.0706V30.8541ZM22.9193 23.9615C22.9193 22.4301 23.8411 21.6644 24.9239 21.6644C26.0042 21.6644 26.8855 22.4301 26.8855 24.345V30.8541H30.4928V23.9615C30.4928 20.5152 28.6898 18.6015 26.1653 18.6015C24.7223 18.6015 23.6395 19.4729 22.9193 20.6221L22.7988 18.985H19.2542C19.2542 19.3881 19.3132 21.6644 19.3132 21.6644V30.8541H22.9193V23.9615ZM15.1995 17.8321C16.4925 17.8321 17.5421 16.7837 17.5421 15.4907C17.5421 14.1965 16.4925 13.1469 15.1995 13.1469C13.9053 13.1469 12.8556 14.1965 12.8556 15.4907C12.8556 16.7837 13.9053 17.8321 15.1995 17.8321Z" fill="#939496"/>
<mask id="mask0" mask-type="alpha" maskUnits="userSpaceOnUse" x="5" y="5" width="34" height="34">
<path fill-rule="evenodd" clip-rule="evenodd" d="M22 5.5C12.8873 5.5 5.5 12.8873 5.5 22C5.5 31.1127 12.8873 38.5 22 38.5C31.1127 38.5 38.5 31.1127 38.5 22C38.5 12.8873 31.1127 5.5 22 5.5ZM17.0706 30.8541H13.327V18.9198H17.0706V30.8541ZM22.9193 23.9615C22.9193 22.4301 23.8411 21.6644 24.9239 21.6644C26.0042 21.6644 26.8855 22.4301 26.8855 24.345V30.8541H30.4928V23.9615C30.4928 20.5152 28.6898 18.6015 26.1653 18.6015C24.7223 18.6015 23.6395 19.4729 22.9193 20.6221L22.7988 18.985H19.2542C19.2542 19.3881 19.3132 21.6644 19.3132 21.6644V30.8541H22.9193V23.9615ZM15.1995 17.8321C16.4925 17.8321 17.5421 16.7837 17.5421 15.4907C17.5421 14.1965 16.4925 13.1469 15.1995 13.1469C13.9053 13.1469 12.8556 14.1965 12.8556 15.4907C12.8556 16.7837 13.9053 17.8321 15.1995 17.8321Z" fill="white"/>
</mask>
<g mask="url(#mask0)">
<rect width="44" height="44" fill="white"/>
</g>
</svg>
