<svg width="44" height="44" viewBox="0 0 44 44" fill="none" xmlns="http://www.w3.org/2000/svg">
<path fill-rule="evenodd" clip-rule="evenodd" d="M22 5.5C12.8873 5.5 5.5 12.8873 5.5 22C5.5 31.1127 12.8873 38.5 22 38.5C31.1127 38.5 38.5 31.1127 38.5 22C38.5 12.8873 31.1127 5.5 22 5.5ZM28.8136 18.9473V18.493C29.4878 17.9967 30.0816 17.3831 30.5569 16.6695C29.9249 16.9473 29.2508 17.1448 28.5358 17.2251C29.2692 16.7893 29.8248 16.0954 30.0816 15.2831C29.4074 15.6794 28.6569 15.9769 27.8643 16.1349C27.2086 15.4608 26.2988 15.025 25.2877 15.025C23.3469 15.025 21.7828 16.5918 21.7828 18.5312C21.7828 18.809 21.8012 19.0882 21.8604 19.3436C18.9493 19.1869 16.3753 17.8584 14.6321 15.7386C14.3332 16.2534 14.1554 16.7893 14.1554 17.4424C14.1554 18.651 14.7703 19.7202 15.7196 20.3548C15.1456 20.3337 14.611 20.1757 14.1357 19.919V19.9585C14.1357 21.6622 15.3444 23.0881 16.948 23.4041C16.6531 23.4844 16.3332 23.5239 16.0172 23.5239C15.7986 23.5239 15.5827 23.5042 15.3641 23.4647C15.7986 24.8524 17.1074 25.8807 18.6333 25.9005C17.4444 26.8524 15.9197 27.5647 14.2739 27.5647C13.9961 27.5647 13.7183 27.545 13.4431 27.5055C14.9862 28.4969 16.8506 28.9314 18.8308 28.9314C25.2877 28.9314 28.8136 23.5832 28.8136 18.9473Z" fill="#939496"/>
<mask id="mask0" mask-type="alpha" maskUnits="userSpaceOnUse" x="5" y="5" width="34" height="34">
<path fill-rule="evenodd" clip-rule="evenodd" d="M22 5.5C12.8873 5.5 5.5 12.8873 5.5 22C5.5 31.1127 12.8873 38.5 22 38.5C31.1127 38.5 38.5 31.1127 38.5 22C38.5 12.8873 31.1127 5.5 22 5.5ZM28.8136 18.9473V18.493C29.4878 17.9967 30.0816 17.3831 30.5569 16.6695C29.9249 16.9473 29.2508 17.1448 28.5358 17.2251C29.2692 16.7893 29.8248 16.0954 30.0816 15.2831C29.4074 15.6794 28.6569 15.9769 27.8643 16.1349C27.2086 15.4608 26.2988 15.025 25.2877 15.025C23.3469 15.025 21.7828 16.5918 21.7828 18.5312C21.7828 18.809 21.8012 19.0882 21.8604 19.3436C18.9493 19.1869 16.3753 17.8584 14.6321 15.7386C14.3332 16.2534 14.1554 16.7893 14.1554 17.4424C14.1554 18.651 14.7703 19.7202 15.7196 20.3548C15.1456 20.3337 14.611 20.1757 14.1357 19.919V19.9585C14.1357 21.6622 15.3444 23.0881 16.948 23.4041C16.6531 23.4844 16.3332 23.5239 16.0172 23.5239C15.7986 23.5239 15.5827 23.5042 15.3641 23.4647C15.7986 24.8524 17.1074 25.8807 18.6333 25.9005C17.4444 26.8524 15.9197 27.5647 14.2739 27.5647C13.9961 27.5647 13.7183 27.545 13.4431 27.5055C14.9862 28.4969 16.8506 28.9314 18.8308 28.9314C25.2877 28.9314 28.8136 23.5832 28.8136 18.9473Z" fill="white"/>
</mask>
<g mask="url(#mask0)">
<rect width="44" height="44" fill="white"/>
</g>
</svg>
